<svg width="1280" height="640" viewBox="0 0 1280 640" fill="none" xmlns="http://www.w3.org/2000/svg" role="img" aria-labelledby="hero-title hero-desc">
  <title id="hero-title">standard-ui</title>
  <desc id="hero-desc">A clean provider-agnostic chat workspace for OpenAI-compatible APIs, Anthropic, Ollama, and custom gateways.</desc>
  <defs>
    <linearGradient id="wall" x1="0" y1="0" x2="1280" y2="640" gradientUnits="userSpaceOnUse">
      <stop stop-color="#FFFFFF"/>
      <stop offset="0.48" stop-color="#F6F5F1"/>
      <stop offset="1" stop-color="#E9E6DC"/>
    </linearGradient>
    <linearGradient id="floor" x1="640" y1="270" x2="640" y2="640" gradientUnits="userSpaceOnUse">
      <stop stop-color="#FCFBF7"/>
      <stop offset="1" stop-color="#D9D4C6"/>
    </linearGradient>
    <linearGradient id="glass" x1="336" y1="125" x2="944" y2="574" gradientUnits="userSpaceOnUse">
      <stop stop-color="#FFFFFF" stop-opacity="0.96"/>
      <stop offset="1" stop-color="#F1EEE5" stop-opacity="0.9"/>
    </linearGradient>
    <linearGradient id="ink" x1="0" y1="0" x2="400" y2="230" gradientUnits="userSpaceOnUse">
      <stop stop-color="#1F1F1E"/>
      <stop offset="1" stop-color="#35332F"/>
    </linearGradient>
    <linearGradient id="signal" x1="0" y1="0" x2="160" y2="160" gradientUnits="userSpaceOnUse">
      <stop stop-color="#A9D7C7"/>
      <stop offset="1" stop-color="#6F9F8C"/>
    </linearGradient>
    <filter id="soft-shadow" x="260" y="62" width="760" height="548" filterUnits="userSpaceOnUse" color-interpolation-filters="sRGB">
      <feDropShadow dx="0" dy="26" stdDeviation="32" flood-color="#8E887B" flood-opacity="0.28"/>
    </filter>
    <filter id="card-shadow" x="585" y="130" width="390" height="396" filterUnits="userSpaceOnUse" color-interpolation-filters="sRGB">
      <feDropShadow dx="0" dy="18" stdDeviation="22" flood-color="#7E786B" flood-opacity="0.24"/>
    </filter>
    <pattern id="ceiling-grid" x="0" y="0" width="64" height="64" patternUnits="userSpaceOnUse">
      <path d="M64 0H0V64" fill="none" stroke="#D8D3C7" stroke-opacity="0.42"/>
    </pattern>
    <clipPath id="screen-clip">
      <rect x="332" y="106" width="616" height="448" rx="34"/>
    </clipPath>
  </defs>

  <rect width="1280" height="640" rx="32" fill="url(#wall)"/>
  <path d="M0 0H1280V260H0V0Z" fill="url(#ceiling-grid)" opacity="0.36"/>
  <path d="M0 640L398 304H882L1280 640H0Z" fill="url(#floor)"/>
  <path d="M398 304L0 640" stroke="#C9C2B1" stroke-width="2" opacity="0.72"/>
  <path d="M882 304L1280 640" stroke="#C9C2B1" stroke-width="2" opacity="0.72"/>
  <path d="M492 304L366 640" stroke="#D5CFC1" stroke-width="1.5" opacity="0.7"/>
  <path d="M788 304L914 640" stroke="#D5CFC1" stroke-width="1.5" opacity="0.7"/>
  <path d="M420 420H860" stroke="#D8D2C4" stroke-width="1.5" opacity="0.72"/>
  <path d="M290 530H990" stroke="#CFC7B8" stroke-width="1.5" opacity="0.72"/>
  <rect x="102" y="94" width="170" height="404" rx="22" fill="#F8F7F2" stroke="#D9D3C6"/>
  <rect x="1008" y="94" width="170" height="404" rx="22" fill="#F8F7F2" stroke="#D9D3C6"/>
  <rect x="130" y="132" width="114" height="20" rx="10" fill="#E7E1D2"/>
  <rect x="1036" y="132" width="114" height="20" rx="10" fill="#E7E1D2"/>
  <rect x="137" y="186" width="100" height="216" rx="16" fill="#FFFFFF" stroke="#E2DDD1"/>
  <rect x="1043" y="186" width="100" height="216" rx="16" fill="#FFFFFF" stroke="#E2DDD1"/>

  <g filter="url(#soft-shadow)">
    <rect x="332" y="106" width="616" height="448" rx="34" fill="url(#glass)" stroke="#D2CCBE" stroke-width="1.5"/>
  </g>

  <g clip-path="url(#screen-clip)">
    <rect x="332" y="106" width="616" height="62" fill="#FFFFFF"/>
    <circle cx="374" cy="137" r="7" fill="#DCD7CC"/>
    <circle cx="397" cy="137" r="7" fill="#DCD7CC"/>
    <circle cx="420" cy="137" r="7" fill="#DCD7CC"/>
    <rect x="462" y="128" width="118" height="18" rx="9" fill="#EFEBE1"/>
    <rect x="604" y="128" width="192" height="18" rx="9" fill="#F5F2EA"/>
    <path d="M332 168H948" stroke="#E2DDD1"/>

    <rect x="332" y="168" width="176" height="386" fill="#F7F5EE"/>
    <rect x="360" y="202" width="108" height="18" rx="9" fill="#1F1F1E"/>
    <rect x="360" y="246" width="110" height="42" rx="16" fill="#FFFFFF" stroke="#E0DACD"/>
    <rect x="378" y="262" width="64" height="10" rx="5" fill="#B9B2A4"/>
    <rect x="360" y="304" width="118" height="42" rx="16" fill="#ECE7DB"/>
    <rect x="378" y="320" width="74" height="10" rx="5" fill="#847E72"/>
    <rect x="360" y="362" width="104" height="42" rx="16" fill="#FFFFFF" stroke="#E0DACD"/>
    <rect x="378" y="378" width="58" height="10" rx="5" fill="#B9B2A4"/>
    <rect x="360" y="486" width="88" height="18" rx="9" fill="#D7D0C2"/>

    <rect x="548" y="212" width="244" height="58" rx="22" fill="#1F1F1E"/>
    <text x="580" y="249" fill="#F5F2EA" font-family="ui-sans-serif, -apple-system, BlinkMacSystemFont, 'Segoe UI', sans-serif" font-size="22" font-weight="700">standard-ui</text>
    <rect x="812" y="212" width="92" height="58" rx="22" fill="#FFFFFF" stroke="#DCD6CA"/>
    <text x="838" y="247" fill="#1F1F1E" font-family="ui-sans-serif, -apple-system, BlinkMacSystemFont, 'Segoe UI', sans-serif" font-size="15" font-weight="700">OAI</text>

    <rect x="552" y="312" width="278" height="66" rx="24" fill="#FFFFFF" stroke="#DED8CB"/>
    <rect x="578" y="334" width="132" height="11" rx="5.5" fill="#AEA797"/>
    <rect x="578" y="354" width="206" height="9" rx="4.5" fill="#D7D1C4"/>

    <rect x="642" y="406" width="234" height="66" rx="24" fill="#F3F0E7" stroke="#DED8CB"/>
    <rect x="670" y="428" width="116" height="11" rx="5.5" fill="#A29A89"/>
    <rect x="670" y="448" width="164" height="9" rx="4.5" fill="#CFC8B8"/>

    <rect x="548" y="498" width="356" height="34" rx="17" fill="#FFFFFF" stroke="#DED8CB"/>
    <rect x="572" y="511" width="116" height="8" rx="4" fill="#C8C1B3"/>
    <circle cx="874" cy="515" r="12" fill="url(#signal)"/>
  </g>

  <g filter="url(#card-shadow)">
    <rect x="616" y="152" width="330" height="344" rx="28" fill="#FFFFFF" stroke="#D6D0C3"/>
    <rect x="646" y="184" width="78" height="26" rx="13" fill="#1F1F1E"/>
    <text x="664" y="202" fill="#F8F6F0" font-family="ui-sans-serif, -apple-system, BlinkMacSystemFont, 'Segoe UI', sans-serif" font-size="13" font-weight="700">OSS</text>
    <text x="646" y="254" fill="#1F1F1E" font-family="ui-sans-serif, -apple-system, BlinkMacSystemFont, 'Segoe UI', sans-serif" font-size="44" font-weight="800" letter-spacing="-0.045em">clean</text>
    <text x="646" y="304" fill="#1F1F1E" font-family="ui-sans-serif, -apple-system, BlinkMacSystemFont, 'Segoe UI', sans-serif" font-size="44" font-weight="800" letter-spacing="-0.045em">by contract</text>
    <rect x="646" y="338" width="240" height="1.5" fill="#DDD7CA"/>
    <text x="646" y="377" fill="#615D54" font-family="ui-sans-serif, -apple-system, BlinkMacSystemFont, 'Segoe UI', sans-serif" font-size="18">Provider-agnostic chat UI</text>
    <text x="646" y="407" fill="#615D54" font-family="ui-sans-serif, -apple-system, BlinkMacSystemFont, 'Segoe UI', sans-serif" font-size="18">with local-first sessions</text>
    <g>
      <rect x="646" y="438" width="86" height="28" rx="14" fill="#F3F0E8" stroke="#DDD7CA"/>
      <text x="668" y="457" fill="#1F1F1E" font-family="ui-sans-serif, -apple-system, BlinkMacSystemFont, 'Segoe UI', sans-serif" font-size="12" font-weight="700">OpenAI</text>
      <rect x="744" y="438" width="106" height="28" rx="14" fill="#F3F0E8" stroke="#DDD7CA"/>
      <text x="764" y="457" fill="#1F1F1E" font-family="ui-sans-serif, -apple-system, BlinkMacSystemFont, 'Segoe UI', sans-serif" font-size="12" font-weight="700">Anthropic</text>
      <rect x="862" y="438" width="54" height="28" rx="14" fill="#F3F0E8" stroke="#DDD7CA"/>
      <text x="880" y="457" fill="#1F1F1E" font-family="ui-sans-serif, -apple-system, BlinkMacSystemFont, 'Segoe UI', sans-serif" font-size="12" font-weight="700">local</text>
    </g>
  </g>

  <text x="118" y="560" fill="#8B8577" font-family="ui-sans-serif, -apple-system, BlinkMacSystemFont, 'Segoe UI', sans-serif" font-size="15" font-weight="700" letter-spacing="0.18em">THREADS</text>
  <text x="1042" y="560" fill="#8B8577" font-family="ui-sans-serif, -apple-system, BlinkMacSystemFont, 'Segoe UI', sans-serif" font-size="15" font-weight="700" letter-spacing="0.18em">GATEWAYS</text>
  <path d="M560 78H720" stroke="#D9D2C5" stroke-width="3" stroke-linecap="round"/>
  <path d="M610 86H670" stroke="#EEE9DE" stroke-width="3" stroke-linecap="round"/>
</svg>
